<svg id="Layer_1" data-name="Layer 1" xmlns="http://www.w3.org/2000/svg" viewBox="0 0 1024 1024"><defs><style>.cls-1{fill:#226e5f;}.cls-1,.cls-2{stroke:#fff;stroke-miterlimit:10;}.cls-3{font-size:24.5px;fill:#fff;}.cls-10,.cls-24,.cls-3,.cls-8{font-family:MyriadPro-Regular, Myriad Pro;}.cls-4{letter-spacing:0.01em;}.cls-5{letter-spacing:0.02em;}.cls-6{letter-spacing:0.01em;}.cls-7{letter-spacing:0.02em;}.cls-8{font-size:24px;}.cls-9{letter-spacing:-0.01em;}.cls-10{font-size:60px;}.cls-11{letter-spacing:-0.02em;}.cls-12{letter-spacing:-0.01em;}.cls-13{letter-spacing:0em;}.cls-14{letter-spacing:0em;}.cls-15{letter-spacing:-0.04em;}.cls-16{letter-spacing:-0.04em;}.cls-17{letter-spacing:-0.01em;}.cls-18{letter-spacing:-0.01em;}.cls-19{letter-spacing:-0.01em;}.cls-20{letter-spacing:0.01em;}.cls-21{letter-spacing:0em;}.cls-22{letter-spacing:-0.04em;}.cls-23{letter-spacing:0em;}.cls-24{font-size:27.5px;}.cls-25{letter-spacing:0.01em;}.cls-26{letter-spacing:0em;}.cls-27{letter-spacing:-0.01em;}.cls-28{letter-spacing:-0.01em;}.cls-29{letter-spacing:-0.01em;}.cls-30{letter-spacing:-0.01em;}.cls-31{letter-spacing:0.01em;}.cls-32{letter-spacing:-0.04em;}.cls-33{letter-spacing:-0.04em;}.cls-34{letter-spacing:-0.01em;}.cls-35{letter-spacing:-0.01em;}.cls-36{letter-spacing:0em;}.cls-37{letter-spacing:0em;}.cls-38{letter-spacing:0em;}.cls-39{letter-spacing:-0.01em;}.cls-40{letter-spacing:0.01em;}</style></defs><rect class="cls-1" x="69" y="578.5" width="44.3" height="44.3"/><rect class="cls-1" x="113.3" y="578.5" width="44.3" height="44.3"/><rect class="cls-1" x="157.6" y="578.5" width="44.3" height="44.3"/><rect class="cls-1" x="201.9" y="578.5" width="44.3" height="44.3"/><rect class="cls-1" x="246.2" y="578.5" width="44.3" height="44.3"/><rect class="cls-1" x="290.5" y="578.5" width="44.3" height="44.3"/><rect class="cls-1" x="334.8" y="578.5" width="44.3" height="44.3"/><rect class="cls-1" x="379.1" y="578.5" width="44.3" height="44.3"/><rect class="cls-1" x="423.4" y="578.5" width="44.3" height="44.3"/><rect class="cls-1" x="467.7" y="578.5" width="44.3" height="44.3"/><rect class="cls-1" x="512" y="578.5" width="44.3" height="44.3"/><rect class="cls-1" x="556.3" y="578.5" width="44.3" height="44.3"/><rect class="cls-1" x="600.6" y="578.5" width="44.3" height="44.3"/><rect class="cls-1" x="644.9" y="578.5" width="44.3" height="44.3"/><rect class="cls-2" x="689.2" y="578.5" width="44.3" height="44.3"/><rect class="cls-2" x="733.5" y="578.5" width="44.3" height="44.3"/><rect class="cls-2" x="777.8" y="578.5" width="44.3" height="44.3"/><rect class="cls-2" x="822.1" y="578.5" width="44.3" height="44.3"/><rect class="cls-2" x="866.4" y="578.5" width="44.3" height="44.3"/><rect class="cls-2" x="910.7" y="578.5" width="44.3" height="44.3"/><rect class="cls-1" x="69" y="622.8" width="44.3" height="44.3"/><rect class="cls-1" x="113.3" y="622.8" width="44.3" height="44.3"/><rect class="cls-1" x="157.6" y="622.8" width="44.3" height="44.3"/><rect class="cls-1" x="201.9" y="622.8" width="44.3" height="44.3"/><rect class="cls-1" x="246.2" y="622.8" width="44.3" height="44.3"/><rect class="cls-1" x="290.5" y="622.8" width="44.3" height="44.3"/><rect class="cls-1" x="334.8" y="622.8" width="44.3" height="44.3"/><rect class="cls-1" x="379.1" y="622.8" width="44.3" height="44.3"/><rect class="cls-1" x="423.4" y="622.8" width="44.3" height="44.3"/><rect class="cls-1" x="467.7" y="622.8" width="44.3" height="44.3"/><rect class="cls-1" x="512" y="622.8" width="44.3" height="44.3"/><rect class="cls-1" x="556.3" y="622.8" width="44.3" height="44.3"/><rect class="cls-2" x="600.6" y="622.8" width="44.3" height="44.3"/><rect class="cls-2" x="644.9" y="622.8" width="44.3" height="44.3"/><rect class="cls-2" x="689.2" y="622.8" width="44.3" height="44.3"/><rect class="cls-2" x="733.5" y="622.8" width="44.3" height="44.3"/><rect class="cls-2" x="777.8" y="622.8" width="44.3" height="44.3"/><rect class="cls-2" x="822.1" y="622.8" width="44.3" height="44.3"/><rect class="cls-2" x="866.4" y="622.8" width="44.3" height="44.3"/><rect class="cls-2" x="910.7" y="622.8" width="44.3" height="44.3"/><rect class="cls-1" x="69" y="667.1" width="44.3" height="44.3"/><rect class="cls-1" x="113.3" y="667.1" width="44.3" height="44.3"/><rect class="cls-1" x="157.6" y="667.1" width="44.3" height="44.3"/><rect class="cls-1" x="201.9" y="667.1" width="44.3" height="44.3"/><rect class="cls-1" x="246.2" y="667.1" width="44.3" height="44.3"/><rect class="cls-1" x="290.5" y="667.1" width="44.3" height="44.3"/><rect class="cls-1" x="334.8" y="667.1" width="44.3" height="44.3"/><rect class="cls-1" x="379.1" y="667.1" width="44.3" height="44.3"/><rect class="cls-1" x="423.4" y="667.1" width="44.3" height="44.3"/><rect class="cls-1" x="467.7" y="667.1" width="44.3" height="44.3"/><rect class="cls-1" x="512" y="667.1" width="44.3" height="44.3"/><rect class="cls-1" x="556.3" y="667.1" width="44.3" height="44.3"/><rect class="cls-2" x="600.6" y="667.1" width="44.3" height="44.3"/><rect class="cls-2" x="644.9" y="667.1" width="44.3" height="44.3"/><rect class="cls-2" x="689.2" y="667.1" width="44.3" height="44.3"/><rect class="cls-2" x="733.5" y="667.1" width="44.3" height="44.3"/><rect class="cls-2" x="777.8" y="667.1" width="44.3" height="44.3"/><rect class="cls-2" x="822.1" y="667.1" width="44.3" height="44.3"/><rect class="cls-2" x="866.4" y="667.1" width="44.3" height="44.3"/><rect class="cls-2" x="910.7" y="667.1" width="44.3" height="44.3"/><rect class="cls-1" x="69" y="711.4" width="44.3" height="44.3"/><rect class="cls-1" x="113.3" y="711.4" width="44.3" height="44.3"/><rect class="cls-1" x="157.6" y="711.4" width="44.3" height="44.3"/><rect class="cls-1" x="201.9" y="711.4" width="44.3" height="44.3"/><rect class="cls-1" x="246.2" y="711.4" width="44.3" height="44.3"/><rect class="cls-1" x="290.5" y="711.4" width="44.3" height="44.3"/><rect class="cls-1" x="334.8" y="711.4" width="44.3" height="44.3"/><rect class="cls-1" x="379.1" y="711.4" width="44.3" height="44.3"/><rect class="cls-1" x="423.4" y="711.4" width="44.3" height="44.3"/><rect class="cls-1" x="467.7" y="711.4" width="44.3" height="44.3"/><rect class="cls-1" x="512" y="711.4" width="44.3" height="44.3"/><rect class="cls-1" x="556.3" y="711.4" width="44.3" height="44.3"/><rect class="cls-2" x="600.6" y="711.4" width="44.3" height="44.3"/><rect class="cls-2" x="644.9" y="711.4" width="44.3" height="44.3"/><rect class="cls-2" x="689.2" y="711.4" width="44.3" height="44.3"/><rect class="cls-2" x="733.5" y="711.4" width="44.3" height="44.3"/><rect class="cls-2" x="777.8" y="711.4" width="44.3" height="44.3"/><rect class="cls-2" x="822.1" y="711.4" width="44.3" height="44.3"/><rect class="cls-2" x="866.4" y="711.4" width="44.3" height="44.3"/><rect class="cls-2" x="910.7" y="711.4" width="44.3" height="44.3"/><rect class="cls-1" x="69" y="755.7" width="44.3" height="44.3"/><rect class="cls-1" x="113.3" y="755.7" width="44.3" height="44.3"/><rect class="cls-1" x="157.6" y="755.7" width="44.3" height="44.3"/><rect class="cls-1" x="201.9" y="755.7" width="44.3" height="44.3"/><rect class="cls-1" x="246.2" y="755.7" width="44.3" height="44.3"/><rect class="cls-1" x="290.5" y="755.7" width="44.3" height="44.3"/><rect class="cls-1" x="334.8" y="755.7" width="44.3" height="44.3"/><rect class="cls-1" x="379.1" y="755.7" width="44.3" height="44.3"/><rect class="cls-1" x="423.4" y="755.7" width="44.3" height="44.3"/><rect class="cls-1" x="467.7" y="755.7" width="44.3" height="44.3"/><rect class="cls-1" x="512" y="755.7" width="44.3" height="44.3"/><rect class="cls-1" x="556.3" y="755.7" width="44.3" height="44.3"/><rect class="cls-2" x="600.6" y="755.7" width="44.3" height="44.3"/><rect class="cls-2" x="644.9" y="755.7" width="44.3" height="44.3"/><rect class="cls-2" x="689.2" y="755.7" width="44.3" height="44.3"/><rect class="cls-2" x="733.5" y="755.7" width="44.3" height="44.3"/><rect class="cls-2" x="777.8" y="755.7" width="44.3" height="44.3"/><rect class="cls-2" x="822.1" y="755.7" width="44.3" height="44.3"/><rect class="cls-2" x="866.4" y="755.7" width="44.3" height="44.3"/><rect class="cls-2" x="910.7" y="755.7" width="44.3" height="44.3"/><rect class="cls-1" x="245.55" y="526.13" width="131.17" height="30.62"/><text class="cls-3" transform="translate(260.17 547.35)">Guil<tspan class="cls-4" x="40.84" y="0">t</tspan><tspan class="cls-5" x="49.17" y="0">y</tspan><tspan x="61.29" y="0" xml:space="preserve">:  57</tspan></text><rect class="cls-1" x="622.2" y="526" width="150.57" height="30.62"/><text class="cls-3" transform="translate(623.73 547.23)">Not Guil<tspan class="cls-6" x="83.71" y="0">t</tspan><tspan class="cls-7" x="92.04" y="0">y</tspan><tspan x="104.17" y="0" xml:space="preserve">:  43</tspan></text><text class="cls-8" transform="translate(383.22 151.46)">IMPE<tspan class="cls-9" x="49.61" y="0">A</tspan><tspan x="63.94" y="0">CHMENT DECISION</tspan></text><text class="cls-10" transform="translate(79.82 222.02)"><tspan class="cls-11">P</tspan><tspan class="cls-12" x="30.96" y="0">r</tspan><tspan x="49.98" y="0">eside</tspan><tspan class="cls-13" x="181.74" y="0">n</tspan><tspan x="214.8" y="0">t </tspan><tspan class="cls-14" x="247.38" y="0">D</tspan><tspan x="287.58" y="0">onald</tspan><tspan class="cls-15" x="430.73" y="0"> </tspan><tspan class="cls-16" x="440.99" y="0">T</tspan><tspan x="468.11" y="0">rump </tspan><tspan class="cls-17" x="617.69" y="0">A</tspan><tspan class="cls-18" x="653.69" y="0">c</tspan><tspan x="680.21" y="0">quit</tspan><tspan class="cls-19" x="780.95" y="0">t</tspan><tspan x="800.45" y="0">ed </tspan><tspan x="114" y="72">in 2nd </tspan><tspan class="cls-20" x="284.7" y="72">I</tspan><tspan x="299.63" y="72">mpeachme</tspan><tspan class="cls-21" x="583.07" y="72">n</tspan><tspan x="616.13" y="72">t</tspan><tspan class="cls-22" x="635.99" y="72"> </tspan><tspan class="cls-16" x="646.25" y="72">T</tspan><tspan class="cls-23" x="673.37" y="72">r</tspan><tspan x="693.23" y="72">ial</tspan></text><text class="cls-24" transform="translate(210 344.11)"><tspan class="cls-25">S</tspan><tspan x="13.72" y="0">en</tspan><tspan class="cls-26" x="42.76" y="0">a</tspan><tspan class="cls-27" x="55.91" y="0">t</tspan><tspan x="64.84" y="0">e </tspan><tspan class="cls-28" x="84.45" y="0">v</tspan><tspan x="97.4" y="0">o</tspan><tspan class="cls-27" x="112.5" y="0">t</tspan><tspan x="121.44" y="0">es </tspan><tspan class="cls-29" x="151.94" y="0">t</tspan><tspan x="160.87" y="0">o not </tspan><tspan class="cls-27" x="227.09" y="0">c</tspan><tspan x="239.25" y="0">o</tspan><tspan class="cls-30" x="254.34" y="0">n</tspan><tspan x="269.25" y="0">vi</tspan><tspan class="cls-31" x="288.91" y="0">c</tspan><tspan x="301.59" y="0">t</tspan><tspan class="cls-32" x="310.69" y="0"> </tspan><tspan class="cls-33" x="315.4" y="0">T</tspan><tspan x="327.82" y="0">rump e</tspan><tspan class="cls-34" x="410.16" y="0">v</tspan><tspan x="423.11" y="0">en when se</tspan><tspan class="cls-35" x="553.02" y="0">v</tspan><tspan x="565.97" y="0">en </tspan><tspan class="cls-36" x="-18.33" y="33">R</tspan><tspan x="-3.42" y="33">epublicans joined </tspan><tspan class="cls-36" x="205.87" y="33">D</tspan><tspan x="224.3" y="33">emoc</tspan><tspan class="cls-37" x="288.43" y="33">r</tspan><tspan class="cls-38" x="297.28" y="33">a</tspan><tspan x="310.43" y="33" xml:space="preserve">ts  in </tspan><tspan class="cls-34" x="369.61" y="33">v</tspan><tspan x="382.56" y="33">oting </tspan><tspan class="cls-39" x="449.66" y="33">f</tspan><tspan x="457.33" y="33">or </tspan><tspan class="cls-27" x="487.25" y="33">c</tspan><tspan x="499.41" y="33">o</tspan><tspan class="cls-39" x="514.51" y="33">n</tspan><tspan x="529.41" y="33">vi</tspan><tspan class="cls-40" x="549.07" y="33">c</tspan><tspan x="561.75" y="33">tion. </tspan></text></svg>